HIERARCHY
ROOT SpineBase
{
  OFFSET 0.000000 0.000000 0.000000
  CHANNELS 6 Xposition Yposition Zposition Zrotation Xrotation Yrotation
  JOINT SpineMid
  {
    OFFSET 0.000000 32.623872 0.000000
    CHANNELS 3 Zrotation Xrotation Yrotation
    JOINT SpineShoulder
    {
      OFFSET -0.798969 24.344336 -0.871400
      CHANNELS 3 Zrotation Xrotation Yrotation
      JOINT Neck
      {
        OFFSET -0.254081 8.216504 -1.090548
        CHANNELS 3 Zrotation Xrotation Yrotation
        JOINT Head
        {
          OFFSET -3.892840 12.007313 4.378255
          CHANNELS 3 Zrotation Xrotation Yrotation
          End Site
          {
            OFFSET 0 0 0
          }
        }
      }
      JOINT ShoulderLeft
      {
        OFFSET -12.728226 -13.574705 2.274613
        CHANNELS 3 Zrotation Xrotation Yrotation
        JOINT ElbowLeft
        {
          OFFSET -24.918877 -1.264361 -9.190951
          CHANNELS 3 Zrotation Xrotation Yrotation
          JOINT WristLeft
          {
            OFFSET -32.006204 2.807974 9.051711
            CHANNELS 3 Zrotation Xrotation Yrotation
            JOINT HandLeft
            {
              OFFSET -11.053542 0.516853 6.090682
              CHANNELS 3 Zrotation Xrotation Yrotation
              JOINT HandTipLeft
              {
                OFFSET -5.099809 -2.471291 -2.050599
                CHANNELS 3 Zrotation Xrotation Yrotation
                End Site
                {
                  OFFSET 0 0 0
                }
              }
              JOINT ThumbLeft
              {
                OFFSET -4.615365 8.756223 -6.404679
                CHANNELS 3 Zrotation Xrotation Yrotation
                End Site
                {
                  OFFSET 0 0 0
                }
              }
            }
          }
        }
      }
      JOINT ShoulderRight
      {
        OFFSET 4.811273 -1.534284 -16.212041
        CHANNELS 3 Zrotation Xrotation Yrotation
        JOINT ElbowRight
        {
          OFFSET -0.655880 -21.328737 -10.357667
          CHANNELS 3 Zrotation Xrotation Yrotation
          JOINT WristRight
          {
            OFFSET -9.850965 -24.000312 -3.069498
            CHANNELS 3 Zrotation Xrotation Yrotation
            JOINT HandRight
            {
              OFFSET -0.521616 -8.333659 0.835276
              CHANNELS 3 Zrotation Xrotation Yrotation
              JOINT HandTipRight
              {
                OFFSET -2.736553 -5.989808 -1.042017
                CHANNELS 3 Zrotation Xrotation Yrotation
                End Site
                {
                  OFFSET 0 0 0
                }
              }
              JOINT ThumbRight
              {
                OFFSET -0.813800 1.268179 -1.653597
                CHANNELS 3 Zrotation Xrotation Yrotation
                End Site
                {
                  OFFSET 0 0 0
                }
              }
            }
          }
        }
      }
    }
  }
  JOINT HipLeft
  {
    OFFSET -4.508497 -1.391548 0.986990
    CHANNELS 3 Zrotation Xrotation Yrotation
    JOINT KneeLeft
    {
      OFFSET -6.715108 13.613904 -24.331813
      CHANNELS 3 Zrotation Xrotation Yrotation
      JOINT AnkleLeft
      {
        OFFSET 10.116387 -48.243328 8.570453
        CHANNELS 3 Zrotation Xrotation Yrotation
        JOINT FootLeft
        {
          OFFSET -12.493967 -3.450896 -17.280242
          CHANNELS 3 Zrotation Xrotation Yrotation
          End Site
          {
            OFFSET 0 0 0
          }
        }
      }
    }
  }
  JOINT HipRight
  {
    OFFSET 3.594289 3.841350 -8.544971
    CHANNELS 3 Zrotation Xrotation Yrotation
    JOINT KneeRight
    {
      OFFSET 2.103733 -29.084956 -11.020759
      CHANNELS 3 Zrotation Xrotation Yrotation
      JOINT AnkleRight
      {
        OFFSET 4.563041 -35.022717 -1.225170
        CHANNELS 3 Zrotation Xrotation Yrotation
        JOINT FootRight
        {
          OFFSET -9.447050 -4.739725 -12.125906
          CHANNELS 3 Zrotation Xrotation Yrotation
          End Site
          {
            OFFSET 0 0 0
          }
        }
      }
    }
  }
}
MOTION
Frames: 12
Frame Time: 0.033333
30.325336 74.280897 339.366432 -0.000000 0.000000 49.633302 -0.000000 -0.000000 -49.633302 -0.000000 0.000000 0.000000 -0.000000 0.000000 0.000000 0.000000 0.000000 0.000000 -0.000000 0.000000 0.000000 -0.000000 0.000000 0.000000 -0.000000 0.000000 0.000000 -0.000000 0.000000 0.000000 0.000000 0.000000 0.000000 0.000000 0.000000 0.000000 -0.000000 0.000000 0.000000 -0.000000 0.000000 0.000000 -0.000000 0.000000 0.000000 -0.000000 0.000000 0.000000 0.000000 0.000000 0.000000 0.000000 0.000000 0.000000 -0.000000 -0.000000 -49.633302 -0.000000 0.000000 0.000000 -0.000000 0.000000 0.000000 0.000000 0.000000 0.000000 -0.000000 -0.000000 -49.633302 -0.000000 0.000000 0.000000 -0.000000 0.000000 0.000000 0.000000 0.000000 0.000000
29.004788 76.396992 337.020864 -2.060242 1.909371 50.557561 -0.521501 0.161621 -50.572764 0.055325 0.460613 -0.215417 -1.991071 -4.127732 1.047501 0.000000 0.000000 0.000000 -0.367232 -0.442591 -7.005686 10.684488 2.394230 9.443127 -3.161901 -0.695906 -11.272434 2.319152 -4.683920 10.693153 0.000000 0.000000 0.000000 0.000000 0.000000 0.000000 2.470654 -2.058537 0.307763 -0.000000 0.000000 0.000000 -1.862996 -3.608502 -0.019416 1.018240 3.081451 0.338138 0.000000 0.000000 0.000000 0.000000 0.000000 0.000000 -13.503315 -3.560022 -68.219326 2.574826 14.033902 17.047562 9.617542 -13.754569 11.007377 0.000000 0.000000 0.000000 -1.767746 -5.571298 -51.292356 0.047181 1.481212 0.392976 5.581195 -8.043615 3.622555 0.000000 0.000000 0.000000
28.042282 78.096893 334.969226 -4.020954 3.703053 49.045170 -0.996647 0.286414 -49.032633 0.068772 0.906045 -0.405503 -3.853932 -7.889628 1.780261 0.000000 0.000000 0.000000 0.428376 -0.971837 -14.085209 21.274184 9.184221 19.157190 -5.243178 -2.988997 -28.800549 3.513741 -8.524583 27.070950 0.000000 0.000000 0.000000 0.000000 0.000000 0.000000 3.905234 -5.493293 1.127469 0.982084 1.473366 -0.531686 -3.199893 -6.432423 -0.096910 1.462236 5.693380 0.557336 0.000000 0.000000 0.000000 0.000000 0.000000 0.000000 -20.797201 -5.331209 -77.240267 1.267589 22.039564 27.178653 33.496299 -30.671767 38.751778 0.000000 0.000000 0.000000 -2.921309 -10.084070 -50.326402 0.467702 2.380190 0.530059 12.503521 -16.383532 9.170080 0.000000 0.000000 0.000000
27.437816 79.380600 333.211518 -5.827719 5.326023 44.033067 -1.431642 0.303723 -43.958675 0.043137 1.316347 -0.570465 -5.624464 -11.172294 2.272272 0.000000 0.000000 0.000000 2.269544 -1.752116 -21.128658 30.100699 20.130772 28.056202 -5.726507 -9.726039 -52.099681 2.741899 -11.241026 49.339466 0.000000 0.000000 0.000000 0.000000 0.000000 0.000000 4.789508 -8.027817 2.052607 2.388818 2.165670 -1.261170 -4.028534 -8.514240 -0.168413 1.298405 7.832107 0.736104 0.000000 0.000000 0.000000 0.000000 0.000000 0.000000 -23.745440 -8.685776 -78.201900 -0.685455 26.062276 32.778306 66.027096 -33.092751 76.124560 0.000000 0.000000 0.000000 -2.719088 -13.767372 -45.512576 1.218642 2.794192 0.448192 19.410574 -22.872374 16.048889 0.000000 0.000000 0.000000
27.191390 80.248112 331.747741 -7.429144 6.730330 33.612929 -1.816987 0.103646 -33.456637 -0.016963 1.672192 -0.712273 -7.336030 -13.890226 2.609302 0.000000 0.000000 0.000000 4.991758 -2.928751 -28.043369 35.217383 33.139623 35.880588 -7.753358 -20.961348 -74.260067 0.641808 -12.722678 70.862759 0.000000 0.000000 0.000000 0.000000 0.000000 0.000000 4.885672 -10.385921 3.103358 2.776132 2.759738 -1.981060 -2.773842 -9.776361 -0.435446 0.478671 9.521475 0.920056 0.000000 0.000000 0.000000 0.000000 0.000000 0.000000 -22.722852 -14.688768 -70.727933 -2.162729 27.708702 35.020790 81.504603 -27.218566 95.378005 0.000000 0.000000 0.000000 -0.180299 -16.478698 -34.692267 2.275527 2.783467 0.178925 24.215514 -26.251102 22.641343 0.000000 0.000000 0.000000
27.303005 80.699430 330.577894 -8.780749 7.878548 15.418873 -2.056635 -0.450861 -15.178011 -0.105962 1.956569 -0.834052 -9.015328 -15.985436 2.881922 0.000000 0.000000 0.000000 8.403389 -4.620252 -34.727668 34.985605 45.425542 43.904601 -12.414124 -31.355159 -89.846824 -1.350219 -12.940460 84.663710 0.000000 0.000000 0.000000 0.000000 0.000000 0.000000 4.151161 -12.548884 4.203924 3.079636 2.970040 -2.715247 -0.401216 -9.966947 -0.860742 -1.073898 10.794171 1.127448 0.000000 0.000000 0.000000 0.000000 0.000000 0.000000 -15.370587 -22.439901 -51.539459 -2.813312 27.576061 34.144800 85.856729 -23.790248 102.543692 0.000000 0.000000 0.000000 5.479801 -17.015854 -15.343187 3.631057 2.375664 -0.251289 25.105024 -26.498383 27.397558 0.000000 0.000000 0.000000
27.677856 80.601937 330.876868 -10.047945 7.458325 -18.485709 -1.970783 -1.587456 18.655215 -0.213146 2.812473 -0.875885 -10.536338 -17.397080 3.246058 0.000000 0.000000 0.000000 10.958347 -4.752204 -42.205024 33.316496 61.011084 53.954798 -31.867378 -42.423416 -118.295923 -4.969807 -5.452852 103.637369 0.000000 0.000000 0.000000 0.000000 0.000000 0.000000 2.506094 -14.204332 5.587386 3.900901 3.265602 -3.852519 4.121720 -9.164767 -1.189165 -6.601120 12.825407 1.549175 0.000000 0.000000 0.000000 0.000000 0.000000 0.000000 5.055839 -26.365428 -9.190594 -4.385742 28.590075 30.680846 85.796401 -23.555513 104.955118 0.000000 0.000000 0.000000 13.189512 -7.520673 19.395430 5.080768 -1.092030 -0.692692 12.298679 -18.013749 28.260871 0.000000 0.000000 0.000000
28.367931 80.261180 330.213433 -10.833612 8.126391 -35.644808 -1.751551 -2.258537 35.866013 -0.324426 3.083782 -0.943487 -12.211435 -18.248038 3.717687 0.000000 0.000000 0.000000 15.429385 -7.908683 -47.941908 15.790251 65.625314 71.127285 -31.233944 -46.075677 -119.271558 -5.516649 -6.899603 101.784664 0.000000 0.000000 0.000000 0.000000 0.000000 0.000000 0.447990 -16.071495 6.601791 3.941566 3.179925 -4.708583 7.467466 -8.197252 -1.981969 -7.905276 13.111974 1.728830 0.000000 0.000000 0.000000 0.000000 0.000000 0.000000 15.571249 -18.195443 16.929302 -3.386975 24.406905 22.893618 81.291435 -25.550236 102.175155 0.000000 0.000000 0.000000 14.289004 -3.593447 36.766624 6.879771 -1.995180 -1.258881 9.636663 -16.463263 28.902409 0.000000 0.000000 0.000000
29.423923 79.550524 329.475560 -11.247162 8.897544 -45.852718 -1.598385 -2.636892 46.153921 -0.439302 3.075474 -1.020462 -13.987474 -18.434490 4.345739 0.000000 0.000000 0.000000 20.334247 -12.332904 -52.538873 -4.350452 64.088170 88.038124 -20.378898 -47.237330 -107.676548 -4.008372 -11.934956 92.520883 0.000000 0.000000 0.000000 0.000000 0.000000 0.000000 -2.251015 -17.754666 7.417324 3.509669 2.907558 -5.480345 11.460788 -6.482795 -2.983785 -8.960700 12.636749 1.754030 0.000000 0.000000 0.000000 0.000000 0.000000 0.000000 17.348249 -3.936791 40.226592 -2.768985 14.324522 8.167225 68.280851 -30.654592 89.580553 0.000000 0.000000 0.000000 13.906882 -2.246815 47.528437 9.104675 -2.516906 -1.986500 6.164621 -14.289448 27.728233 0.000000 0.000000 0.000000
30.845834 78.469970 328.663248 -11.294526 9.754639 -51.787894 -1.562421 -2.794620 52.187617 -0.553707 2.788069 -1.111809 -15.880012 -17.933766 5.195056 0.000000 0.000000 0.000000 25.488909 -17.800424 -55.683137 -18.831408 58.115121 97.264002 -2.697844 -39.031223 -81.071491 -0.141473 -20.906453 70.488164 0.000000 0.000000 0.000000 0.000000 0.000000 0.000000 -5.461275 -19.200401 8.010503 2.575282 2.491328 -6.144625 16.070357 -3.881332 -4.191757 -9.781451 11.234105 1.560973 0.000000 0.000000 0.000000 0.000000 0.000000 0.000000 7.573280 12.941873 68.238637 -7.199639 -2.234947 -14.400607 38.793344 -32.719245 57.396759 0.000000 0.000000 0.000000 13.117683 -3.065632 54.364658 11.851236 -2.677610 -2.913779 2.082183 -11.383051 24.844009 0.000000 0.000000 0.000000
32.633662 77.019516 327.776498 -10.993472 10.677649 -55.221705 -1.624671 -2.769525 55.730265 -0.670039 2.230844 -1.215787 -17.884481 -16.717399 6.325273 0.000000 0.000000 0.000000 30.828538 -23.924616 -57.089460 -27.899312 49.701607 99.598701 -3.818555 -14.071287 -47.093883 7.249059 -29.103371 26.325821 0.000000 0.000000 0.000000 0.000000 0.000000 0.000000 -9.047641 -20.366528 8.387102 1.166552 1.978464 -6.697259 21.302895 -0.076780 -5.611589 -10.321273 8.555809 1.049041 0.000000 0.000000 0.000000 0.000000 0.000000 0.000000 -10.149245 21.188337 97.472835 -18.111534 -16.336734 -38.444675 9.922448 -18.791830 22.497513 0.000000 0.000000 0.000000 12.203720 -5.655992 58.968411 15.253540 -2.484302 -4.091227 -2.266005 -7.686853 20.469608 0.000000 0.000000 0.000000
34.787408 75.199163 326.815310 -10.371618 11.644707 -57.082137 -1.758399 -2.571653 57.702459 -0.795468 1.421154 -1.324643 -19.979939 -14.751288 7.788638 0.000000 0.000000 0.000000 36.394874 -30.207888 -56.557394 -34.208133 40.093645 98.073051 -21.333142 -0.856472 -20.633189 15.482242 -30.414713 -12.296946 0.000000 0.000000 0.000000 0.000000 0.000000 0.000000 -12.884769 -21.228232 8.576673 -0.633263 1.413579 -7.150400 27.291013 5.596648 -7.307204 -10.308564 3.918532 0.042378 0.000000 0.000000 0.000000 0.000000 0.000000 0.000000 -23.085416 20.569905 116.232724 -28.830880 -23.133329 -55.838493 -1.153675 -4.308088 6.522085 0.000000 0.000000 0.000000 11.163935 -9.862544 62.216341 19.492870 -1.934405 -5.583100 -6.403099 -3.336114 14.966540 0.000000 0.000000 0.000000
